<svg data-name="Layer 1" version="1.1" viewBox="0 0 42.1 9.25" xmlns="http://www.w3.org/2000/svg">
 <defs>
  <style>.cls-1{font-size:7.39px;fill:#fff;font-family:Prompt-Bold, Prompt;font-weight:700;}.cls-2{letter-spacing:0.05em;}.cls-3{letter-spacing:0em;}.cls-4{letter-spacing:0.04em;}.cls-5{font-family:Prompt-ExtraLight, Prompt;font-weight:200;}.cls-6{fill:#ff742f;}</style>
 </defs>
 <g class="cls-1" transform="translate(-5.142 -1.7686)" fill="#fff" aria-label="gowthhive">
  <path d="m4.5538-0.46548q0 0.57013-0.16238 0.95983-0.16238 0.38971-0.45466 0.60982-0.29228 0.22372-0.70725 0.32115-0.41136 0.10104-0.93097 0.10104-0.42218 0-0.83354-0.050518-0.40775-0.050517-0.70725-0.12269v-1.014h0.15877q0.23815 0.093818 0.58095 0.16959 0.3428 0.079385 0.61343 0.079385 0.36084 0 0.58456-0.06856 0.22733-0.064951 0.34641-0.18764 0.11186-0.11547 0.16238-0.29589 0.050517-0.18042 0.050517-0.43301v-0.075776q-0.23455 0.19125-0.51961 0.30311-0.28506 0.11186-0.63508 0.11186-0.85158 0-1.3135-0.51239-0.46188-0.51239-0.46188-1.5588 0-0.50157 0.14073-0.86602 0.14073-0.36445 0.39692-0.63508 0.23815-0.25259 0.58456-0.39332 0.35001-0.14073 0.71446-0.14073 0.32836 0 0.59539 0.079385 0.27063 0.075776 0.49074 0.2129l0.046909-0.18042h1.2593zm-1.299-0.81189v-1.8367q-0.11186-0.046909-0.27424-0.072168-0.16238-0.028867-0.29228-0.028867-0.51239 0-0.76859 0.29589-0.2562 0.29228-0.2562 0.81911 0 0.58456 0.2165 0.8155 0.22011 0.23094 0.64951 0.23094 0.19485 0 0.38249-0.061343t0.3428-0.16238z"/>
  <path d="m12.936-2.0243q0 0.99953-0.58456 1.5769-0.58095 0.57374-1.6346 0.57374-1.0537 0-1.6382-0.57374-0.58095-0.57734-0.58095-1.5769 0-1.0067 0.58456-1.5805 0.58817-0.57374 1.6346-0.57374 1.0609 0 1.6382 0.57734 0.58095 0.57734 0.58095 1.5769zm-1.5985 0.98509q0.12629-0.15516 0.18764-0.37167 0.06495-0.22011 0.06495-0.60621 0-0.35723-0.06495-0.59899t-0.18042-0.3861q-0.11547-0.14794-0.27785-0.20929-0.16238-0.061343-0.35002-0.061343-0.18764 0-0.33558 0.050518-0.14434 0.050518-0.27785 0.20207-0.11908 0.14073-0.19125 0.3861-0.068559 0.24537-0.068559 0.61704 0 0.33197 0.061343 0.57734 0.061343 0.24176 0.18042 0.38971 0.11547 0.14073 0.27424 0.20568 0.16238 0.064951 0.36806 0.064951 0.17681 0 0.33558-0.057734 0.16238-0.061343 0.27424-0.20207z"/>
  <path d="m19.966-4.0522-1.2557 4.0522h-1.3784l-0.82632-2.7316-0.81189 2.7316h-1.3964l-1.2449-4.0522h1.364l0.69281 2.7929 0.86602-2.7929h1.1511l0.82272 2.7929 0.68199-2.7929z"/>
  <path d="m22.654-0.036084q-0.20929 0.054126-0.44383 0.082993-0.23455 0.032476-0.57374 0.032476-0.75776 0-1.1294-0.30671-0.36806-0.30671-0.36806-1.05v-1.8944h-0.53404v-0.88045h0.53404v-1.1583h1.299v1.1583h1.216v0.88045h-1.216v1.4361q0 0.2129 0.0036 0.37166t0.05773 0.28506q0.05052 0.12629 0.17681 0.20207 0.1299 0.072168 0.37527 0.072168 0.10104 0 0.26341-0.043301 0.16599-0.043301 0.23094-0.079385h0.10825z"/>
  <path d="m27.87 0h-1.3062v-2.0099q0-0.24537-0.02526-0.48713-0.02526-0.24537-0.0866-0.36084-0.07217-0.13351-0.2129-0.19485-0.13712-0.061343-0.3861-0.061343-0.17681 0-0.36084 0.057734-0.18042 0.057734-0.39332 0.18403v2.8723h-1.299v-5.6147h1.299v2.0099q0.34641-0.27063 0.66394-0.41497 0.32115-0.14434 0.71085-0.14434 0.65673 0 1.0248 0.38249 0.37166 0.38249 0.37166 1.1439z"/>
  <path d="m31.668 0h-0.67838v-2.2949q0-0.27785-0.03248-0.51961-0.03248-0.24537-0.11908-0.38249-0.09021-0.15155-0.2598-0.22372-0.1696-0.075776-0.44022-0.075776-0.27785 0-0.58095 0.13712-0.30311 0.13712-0.58095 0.35001v3.0094h-0.67838v-5.6147h0.67838v2.0315q0.31754-0.26341 0.65673-0.41136 0.33919-0.14794 0.69642-0.14794 0.65312 0 0.99592 0.39332t0.3428 1.133z"/>
  <path d="m33.703-4.7054h-0.76498v-0.70364h0.76498zm-0.0433 4.7054h-0.67838v-4.0306h0.67838z"/>
  <path d="m38.488-4.0306-1.631 4.0306h-0.68199l-1.6202-4.0306h0.73611l1.2485 3.2079 1.2377-3.2079z"/>
  <path d="m42.684-1.9449h-2.9697q0 0.37166 0.11186 0.64951 0.11186 0.27424 0.30671 0.45105 0.18764 0.1732 0.44383 0.2598 0.2598 0.086602 0.57013 0.086602 0.41136 0 0.82632-0.16238 0.41857-0.16599 0.59538-0.32476h0.03608v0.73972q-0.3428 0.14434-0.70003 0.24176-0.35723 0.097427-0.75055 0.097427-1.0031 0-1.566-0.54126-0.56291-0.54487-0.56291-1.5444 0-0.9887 0.53765-1.5697 0.54126-0.58095 1.4217-0.58095 0.8155 0 1.2557 0.47631 0.44383 0.47631 0.44383 1.3531zm-0.66034-0.51961q-0.0036-0.53404-0.27063-0.82632-0.26341-0.29228-0.80467-0.29228-0.54487 0-0.86962 0.32115-0.32115 0.32115-0.36445 0.79746z"/>
 </g>
 <path class="cls-6" d="m2.7159-1.0072c-0.21-0.11-0.59 0.06-0.58 0.3a2.18 2.18 0 0 0-0.8-1.41 1.92 1.92 0 0 0-1-0.35 0.3 0.3 0 0 1-0.22-0.12 0.56 0.56 0 0 1 0.36-0.92 1.41 1.41 0 0 0 1.27-0.72c0-0.12 0.09-0.38 0-0.44a0.42 0.42 0 0 0-0.22 0 1.39 1.39 0 0 0-0.61 0.76l-0.94-0.26a0.06 0.06 0 0 1 0-0.09 2.43 2.43 0 0 1 1.11-1.33 1.34 1.34 0 0 1 1.18 0 1.33 1.33 0 0 1 0.53 1.72 2 2 0 0 1-0.76 0.94c0.84 0.27 1.67 1.49 1.21 2-0.19 0.08-0.34 0.03-0.53-0.08z" image-rendering="auto"/>
</svg>
