<svg id="Layer_1" data-name="Layer 1" xmlns="http://www.w3.org/2000/svg" viewBox="0 0 42.73 9.39"><defs><style>.cls-1{font-size:7.5px;font-family:Prompt-Bold, Prompt;font-weight:700;}.cls-2{letter-spacing:0.05em;}.cls-3{letter-spacing:0em;}.cls-4{letter-spacing:0.04em;}.cls-5{letter-spacing:0.05em;}.cls-6{font-family:Prompt-ExtraLight, Prompt;font-weight:200;}.cls-7{fill:#ff742f;}</style></defs><text class="cls-1" transform="translate(0 6.42)"><tspan class="cls-2">g </tspan><tspan class="cls-3" x="8.3" y="0">o</tspan><tspan class="cls-4" x="13.08" y="0">w</tspan><tspan class="cls-5" x="19.74" y="0">th</tspan><tspan class="cls-6" x="28.04" y="0">hive</tspan></text><path class="cls-7" d="M10.64,26.84c-.21-.12-.61.06-.59.3v0h0a2.18,2.18,0,0,0-.82-1.43,1.87,1.87,0,0,0-1-.36A.3.3,0,0,1,8,25.26a.57.57,0,0,1,.35-1,1.44,1.44,0,0,0,1.29-.73c0-.11.09-.38,0-.45a.34.34,0,0,0-.22,0,1.38,1.38,0,0,0-.62.77l-1-.27a.07.07,0,0,1,0-.08A2.45,2.45,0,0,1,8.89,22.2a1.36,1.36,0,0,1,1.19,0,1.36,1.36,0,0,1,.55,1.75,2,2,0,0,1-.78.95h0c.86.28,1.7,1.52,1.23,2C11,27,10.82,26.94,10.64,26.84Z" transform="translate(-2.62 -19.51)"/></svg>