<svg id="Layer_1" data-name="Layer 1" xmlns="http://www.w3.org/2000/svg" viewBox="0 0 42.1 9.25"><defs><style>.cls-1{font-size:7.39px;fill:#fff;font-family:Prompt-Bold, Prompt;font-weight:700;}.cls-2{letter-spacing:0.05em;}.cls-3{letter-spacing:0em;}.cls-4{letter-spacing:0.04em;}.cls-5{font-family:Prompt-ExtraLight, Prompt;font-weight:200;}.cls-6{fill:#ff742f;}</style></defs><text class="cls-1" transform="translate(0 6.33)"><tspan class="cls-2">g </tspan><tspan class="cls-3" x="8.18" y="0">o</tspan><tspan class="cls-4" x="12.89" y="0">w</tspan><tspan class="cls-2" x="19.45" y="0">th</tspan><tspan class="cls-5" x="27.63" y="0">hive</tspan></text><path class="cls-6" d="M11.24,26.73c-.21-.11-.59.06-.58.3v0h0a2.18,2.18,0,0,0-.8-1.41,1.92,1.92,0,0,0-1-.35.3.3,0,0,1-.22-.12A.56.56,0,0,1,9,24.23a1.41,1.41,0,0,0,1.27-.72c0-.12.09-.38,0-.44a.42.42,0,0,0-.22,0,1.39,1.39,0,0,0-.61.76l-.94-.26a.06.06,0,0,1,0-.09,2.43,2.43,0,0,1,1.11-1.33,1.34,1.34,0,0,1,1.18,0,1.33,1.33,0,0,1,.53,1.72,2,2,0,0,1-.76.94h0c.84.27,1.67,1.49,1.21,2C11.58,26.89,11.43,26.84,11.24,26.73Z" transform="translate(-3.35 -19.51)"/></svg>