<?xml version="1.0" standalone="no"?>
<!DOCTYPE svg PUBLIC "-//W3C//DTD SVG 20010904//EN"
 "http://www.w3.org/TR/2001/REC-SVG-20010904/DTD/svg10.dtd">
<svg version="1.0" xmlns="http://www.w3.org/2000/svg"
 width="400.000000pt" height="400.000000pt" viewBox="0 0 400.000000 400.000000"
 preserveAspectRatio="xMidYMid meet">
<metadata>
Created by potrace 1.16, written by Peter Selinger 2001-2019
</metadata>
<g transform="translate(0.000000,400.000000) scale(0.100000,-0.100000)"
fill="#000000" stroke="none">
<path d="M0 2000 l0 -2000 2000 0 2000 0 0 2000 0 2000 -2000 0 -2000 0 0
-2000z m2210 161 l0 -69 31 15 c38 19 93 10 114 -20 11 -15 15 -47 15 -109 l0
-88 -40 0 -39 0 -3 78 c-3 72 -5 77 -26 80 -40 6 -52 -14 -52 -89 l0 -69 -40
0 -40 0 0 170 0 170 40 0 40 0 0 -69z m260 -5 l0 -73 40 19 c49 24 102 18 125
-15 20 -28 22 -201 3 -195 -9 3 -15 36 -18 97 -4 66 -9 95 -20 102 -22 15 -80
3 -106 -22 -21 -20 -24 -31 -24 -101 0 -45 -4 -78 -10 -78 -6 0 -10 63 -10
170 0 107 4 170 10 170 6 0 10 -31 10 -74z m-450 -11 c0 -31 3 -35 25 -35 21
0 25 -5 25 -31 0 -26 -3 -30 -22 -27 -21 3 -23 -1 -23 -47 0 -47 2 -50 28 -53
22 -3 27 -8 27 -31 0 -24 -5 -30 -30 -35 -35 -6 -78 7 -96 32 -8 9 -14 43 -14
75 0 44 -3 57 -15 57 -10 0 -15 10 -15 30 0 20 5 30 15 30 10 0 15 11 15 35 0
34 1 35 40 35 39 0 40 -1 40 -35z m-1137 -39 c15 -8 27 -11 27 -5 0 5 18 9 40
9 l40 0 0 -102 c0 -57 -5 -120 -11 -141 -14 -52 -57 -77 -131 -77 -74 0 -88 6
-88 40 0 27 0 27 40 17 51 -14 94 0 98 31 3 20 1 22 -25 15 -36 -9 -77 -7
-103 7 -27 15 -60 69 -60 98 0 88 96 147 173 108z m289 -3 c27 -24 24 -85 -7
-121 l-24 -29 23 -13 c29 -15 61 -72 53 -92 -9 -24 -63 -11 -76 18 -12 26 -66
64 -92 64 -22 0 -33 29 -18 46 6 8 21 14 33 14 28 0 62 24 69 50 8 32 -14 36
-39 6 -18 -21 -29 -25 -49 -20 -33 8 -32 19 9 60 38 38 87 46 118 17z m246 2
c106 -43 91 -190 -23 -215 -125 -28 -224 85 -153 175 41 52 107 67 176 40z
m1813 -1 c17 -8 37 -30 45 -49 26 -64 25 -65 -91 -65 -112 0 -120 -4 -90 -47
20 -28 72 -43 125 -36 26 4 40 2 40 -6 0 -15 -84 -19 -138 -6 -32 8 -62 62
-62 111 0 89 89 141 171 98z m-1620 -59 l16 -60 18 63 c17 60 19 62 51 62 32
0 34 -2 50 -62 l18 -62 16 60 c16 59 17 59 58 62 l41 3 -37 -110 -36 -111 -37
0 c-35 0 -36 1 -55 62 l-19 63 -18 -63 -19 -63 -37 3 -36 3 -37 108 -37 108
42 -3 42 -3 16 -60z"/>
</g>
</svg>
